<svg width="25" height="22" viewBox="0 0 25 22" fill="none" xmlns="http://www.w3.org/2000/svg">
<path d="M23.75 15.7667C23.5954 15.6477 23.4075 15.5833 23.2143 15.5833H22.3214V3.66667C22.3214 2.69421 21.9452 1.76158 21.2754 1.07394C20.6056 0.386308 19.6972 0 18.75 0H3.57143C2.62423 0 1.71582 0.386308 1.04605 1.07394C0.376274 1.76158 0 2.69421 0 3.66667C0 5.22615 1.12165 6.13479 1.25 6.23333C1.40413 6.35317 1.59238 6.41759 1.78571 6.41667C1.9718 6.41614 2.15307 6.35594 2.3042 6.24447C2.45533 6.13301 2.56876 5.97585 2.62864 5.79496C2.68852 5.61407 2.69185 5.4185 2.63817 5.23557C2.58449 5.05265 2.47648 4.89151 2.32924 4.77469C2.32478 4.76896 1.78571 4.32438 1.78571 3.66667C1.78571 3.18044 1.97385 2.71412 2.30874 2.3703C2.64362 2.02649 3.09783 1.83333 3.57143 1.83333C4.04503 1.83333 4.49923 2.02649 4.83412 2.3703C5.16901 2.71412 5.35714 3.18044 5.35714 3.66667V18.3333C5.35714 19.3058 5.73342 20.2384 6.40319 20.9261C7.07296 21.6137 7.98137 22 8.92857 22H21.4286C22.3758 22 23.2842 21.6137 23.954 20.9261C24.6237 20.2384 25 19.3058 25 18.3333C25 16.7739 23.8839 15.8652 23.75 15.7667ZM10.7143 7.33333H17.8571C18.0939 7.33333 18.321 7.42991 18.4885 7.60182C18.6559 7.77373 18.75 8.00688 18.75 8.25C18.75 8.49312 18.6559 8.72627 18.4885 8.89818C18.321 9.07009 18.0939 9.16667 17.8571 9.16667H10.7143C10.4775 9.16667 10.2504 9.07009 10.0829 8.89818C9.9155 8.72627 9.82143 8.49312 9.82143 8.25C9.82143 8.00688 9.9155 7.77373 10.0829 7.60182C10.2504 7.42991 10.4775 7.33333 10.7143 7.33333ZM9.82143 11.9167C9.82143 11.6736 9.9155 11.4404 10.0829 11.2685C10.2504 11.0966 10.4775 11 10.7143 11H17.8571C18.0939 11 18.321 11.0966 18.4885 11.2685C18.6559 11.4404 18.75 11.6736 18.75 11.9167C18.75 12.1598 18.6559 12.3929 18.4885 12.5648C18.321 12.7368 18.0939 12.8333 17.8571 12.8333H10.7143C10.4775 12.8333 10.2504 12.7368 10.0829 12.5648C9.9155 12.3929 9.82143 12.1598 9.82143 11.9167ZM21.4286 20.1667H11.1283C11.4428 19.6097 11.608 18.9771 11.6071 18.3333C11.6074 18.0225 11.5618 17.7135 11.4721 17.4167H22.856C23.0777 17.669 23.2054 17.9937 23.2165 18.3333C23.2165 18.5743 23.1703 18.8129 23.0804 19.0354C22.9905 19.258 22.8588 19.4602 22.6927 19.6305C22.5267 19.8008 22.3295 19.9358 22.1126 20.0278C21.8957 20.1198 21.6633 20.167 21.4286 20.1667Z" fill="#4F4F4F"/>
</svg>
