<svg width="25" height="22" viewBox="0 0 25 22" fill="none" xmlns="http://www.w3.org/2000/svg">
<path d="M25 21.0435C25 21.2972 24.8987 21.5405 24.7184 21.7198C24.538 21.8992 24.2935 22 24.0385 22H0.961538C0.706523 22 0.461951 21.8992 0.281628 21.7198C0.101305 21.5405 0 21.2972 0 21.0435C0 20.7898 0.101305 20.5465 0.281628 20.3671C0.461951 20.1877 0.706523 20.087 0.961538 20.087H1.92308V12.4348C1.92308 12.1811 2.02438 11.9378 2.20471 11.7584C2.38503 11.579 2.6296 11.4783 2.88462 11.4783H5.76923C6.02425 11.4783 6.26882 11.579 6.44914 11.7584C6.62946 11.9378 6.73077 12.1811 6.73077 12.4348V20.087H8.65385V6.69565C8.65385 6.44197 8.75515 6.19867 8.93547 6.01929C9.1158 5.83991 9.36037 5.73913 9.61539 5.73913H13.4615C13.7166 5.73913 13.9611 5.83991 14.1414 6.01929C14.3218 6.19867 14.4231 6.44197 14.4231 6.69565V20.087H16.3462V0.956522C16.3462 0.702836 16.4475 0.459541 16.6278 0.280159C16.8081 0.100776 17.0527 0 17.3077 0H22.1154C22.3704 0 22.615 0.100776 22.7953 0.280159C22.9756 0.459541 23.0769 0.702836 23.0769 0.956522V20.087H24.0385C24.2935 20.087 24.538 20.1877 24.7184 20.3671C24.8987 20.5465 25 20.7898 25 21.0435Z" fill="#4F4F4F"/>
</svg>
