<svg width="38" height="38" viewBox="0 0 38 38" fill="none" xmlns="http://www.w3.org/2000/svg">
<g clip-path="url(#clip0_31_845)">
<path d="M5.56708 32.433C3.75238 30.6803 2.30492 28.5837 1.30915 26.2657C0.31338 23.9476 -0.210759 21.4544 -0.232681 18.9316C-0.254604 16.4088 0.226129 13.9069 1.18147 11.5719C2.1368 9.23683 3.54761 7.11544 5.33157 5.33148C7.11553 3.54752 9.23692 2.13671 11.572 1.18137C13.907 0.226037 16.4089 -0.254695 18.9317 -0.232773C21.4545 -0.21085 23.9477 0.313288 26.2658 1.30906C28.5838 2.30483 30.6804 3.75229 32.4331 5.56699C35.8941 9.15043 37.8092 13.9499 37.7659 18.9316C37.7226 23.9133 35.7244 28.6788 32.2016 32.2015C28.6789 35.7243 23.9134 37.7225 18.9317 37.7658C13.95 37.8091 9.15052 35.894 5.56708 32.433ZM29.7541 29.754C32.6062 26.9018 34.2085 23.0335 34.2085 19C34.2085 14.9665 32.6062 11.0981 29.7541 8.24599C26.9019 5.39385 23.0336 3.79153 19.0001 3.79153C14.9665 3.79153 11.0982 5.39385 8.24608 8.24599C5.39394 11.0981 3.79162 14.9665 3.79162 19C3.79162 23.0335 5.39394 26.9018 8.24608 29.754C11.0982 32.6061 14.9665 34.2084 19.0001 34.2084C23.0336 34.2084 26.9019 32.6061 29.7541 29.754ZM13.3001 11.4H17.1001V26.6H13.3001V11.4ZM20.9001 11.4H24.7001V26.6H20.9001V11.4Z" fill="#3498DB"/>
</g>
<defs>
<clipPath id="clip0_31_845">
<rect width="38" height="38" fill="white"/>
</clipPath>
</defs>
</svg>
