<svg width="90" height="30" viewBox="0 0 90 30" fill="none" xmlns="http://www.w3.org/2000/svg">
<path d="M15 26.6875L13.1875 25.0375C6.75 19.2 2.5 15.3375 2.5 10.625C2.5 6.7625 5.525 3.75 9.375 3.75C11.55 3.75 13.6375 4.7625 15 6.35C16.3625 4.7625 18.45 3.75 20.625 3.75C24.475 3.75 27.5 6.7625 27.5 10.625C27.5 15.3375 23.25 19.2 16.8125 25.0375L15 26.6875Z" fill="#E64646"/>
<path d="M45 26.6875L43.1875 25.0375C36.75 19.2 32.5 15.3375 32.5 10.625C32.5 6.7625 35.525 3.75 39.375 3.75C41.55 3.75 43.6375 4.7625 45 6.35C46.3625 4.7625 48.45 3.75 50.625 3.75C54.475 3.75 57.5 6.7625 57.5 10.625C57.5 15.3375 53.25 19.2 46.8125 25.0375L45 26.6875Z" fill="#E64646"/>
<path d="M75 26.6875L73.1875 25.0375C66.75 19.2 62.5 15.3375 62.5 10.625C62.5 6.7625 65.525 3.75 69.375 3.75C71.55 3.75 73.6375 4.7625 75 6.35C76.3625 4.7625 78.45 3.75 80.625 3.75C84.475 3.75 87.5 6.7625 87.5 10.625C87.5 15.3375 83.25 19.2 76.8125 25.0375L75 26.6875Z" fill="#E64646"/>
</svg>
