<svg width="35" height="22" viewBox="0 0 35 22" fill="none" xmlns="http://www.w3.org/2000/svg">
<path d="M6.98995 17.5687C6.83921 17.5687 6.69464 17.5088 6.58805 17.4022C6.48146 17.2957 6.42158 17.1511 6.42158 17.0003V8.0486C6.42158 7.89786 6.48146 7.75329 6.58805 7.6467C6.69464 7.54011 6.83921 7.48023 6.98995 7.48023C7.14069 7.48023 7.28525 7.54011 7.39184 7.6467C7.49843 7.75329 7.55831 7.89786 7.55831 8.0486V17.0003C7.55831 17.1511 7.49843 17.2957 7.39184 17.4022C7.28525 17.5088 7.14069 17.5687 6.98995 17.5687ZM11.5369 17.5687C11.3861 17.5687 11.2416 17.5088 11.135 17.4022C11.0284 17.2957 10.9685 17.1511 10.9685 17.0003V8.0486C10.9685 7.89786 11.0284 7.75329 11.135 7.6467C11.2416 7.54011 11.3861 7.48023 11.5369 7.48023C11.6876 7.48023 11.8322 7.54011 11.9388 7.6467C12.0454 7.75329 12.1052 7.89786 12.1052 8.0486V17.0003C12.1052 17.1511 12.0454 17.2957 11.9388 17.4022C11.8322 17.5088 11.6876 17.5687 11.5369 17.5687ZM16.0844 17.5687C15.9336 17.5687 15.7891 17.5088 15.6825 17.4022C15.5759 17.2957 15.516 17.1511 15.516 17.0003V8.0486C15.516 7.89786 15.5759 7.75329 15.6825 7.6467C15.7891 7.54011 15.9336 7.48023 16.0844 7.48023C16.2351 7.48023 16.3797 7.54011 16.4863 7.6467C16.5928 7.75329 16.6527 7.89786 16.6527 8.0486V17.0003C16.6527 17.1511 16.5928 17.2957 16.4863 17.4022C16.3797 17.5088 16.2351 17.5687 16.0844 17.5687ZM20.6313 17.5687C20.4805 17.5687 20.336 17.5088 20.2294 17.4022C20.1228 17.2957 20.0629 17.1511 20.0629 17.0003V8.0486C20.0629 7.89786 20.1228 7.75329 20.2294 7.6467C20.336 7.54011 20.4805 7.48023 20.6313 7.48023C20.782 7.48023 20.9266 7.54011 21.0332 7.6467C21.1398 7.75329 21.1996 7.89786 21.1996 8.0486V17.0003C21.1996 17.1511 21.1398 17.2957 21.0332 17.4022C20.9266 17.5088 20.782 17.5687 20.6313 17.5687ZM25.1782 17.5687C25.0275 17.5687 24.8829 17.5088 24.7763 17.4022C24.6697 17.2957 24.6098 17.1511 24.6098 17.0003V8.0486C24.6098 7.89786 24.6697 7.75329 24.7763 7.6467C24.8829 7.54011 25.0275 7.48023 25.1782 7.48023C25.3289 7.48023 25.4735 7.54011 25.5801 7.6467C25.6867 7.75329 25.7466 7.89786 25.7466 8.0486V17.0003C25.7466 17.1511 25.6867 17.2957 25.5801 17.4022C25.4735 17.5088 25.3289 17.5687 25.1782 17.5687ZM29.7251 17.5687C29.5744 17.5687 29.4298 17.5088 29.3232 17.4022C29.2166 17.2957 29.1568 17.1511 29.1568 17.0003V8.0486C29.1568 7.89786 29.2166 7.75329 29.3232 7.6467C29.4298 7.54011 29.5744 7.48023 29.7251 7.48023C29.8759 7.48023 30.0204 7.54011 30.127 7.6467C30.2336 7.75329 30.2935 7.89786 30.2935 8.0486V17.0003C30.2935 17.1511 30.2336 17.2957 30.127 17.4022C30.0204 17.5088 29.8759 17.5687 29.7251 17.5687Z" fill="#3498DB"/>
<path d="M4.39695 5.78823H30.6037V8.04919H4.39695V5.78823Z" fill="#3498DB"/>
<path d="M30.6038 16.432H4.39709C4.08319 16.432 3.82872 16.6865 3.82872 17.0004V19.0363C3.82872 19.3502 4.08319 19.6046 4.39709 19.6046H30.6038C30.9177 19.6046 31.1722 19.3502 31.1722 19.0363V17.0004C31.1722 16.6865 30.9177 16.432 30.6038 16.432Z" fill="#3498DB"/>
<path d="M32.7533 18.4679H2.24682C1.93292 18.4679 1.67845 18.7224 1.67845 19.0363V21.0716C1.67845 21.3855 1.93292 21.6399 2.24682 21.6399H32.7533C33.0672 21.6399 33.3216 21.3855 33.3216 21.0716V19.0363C33.3216 18.7224 33.0672 18.4679 32.7533 18.4679Z" fill="#3498DB"/>
<path d="M30.6031 5.78822H4.39695L17.5 1.60221L30.6031 5.78822Z" fill="#3498DB"/>
<path d="M30.6031 17.0004H4.39693M32.7532 19.0362H2.2468M34.7158 21.0943H0.284238M6.13272 8.04918V17.0004M10.6796 8.04918V17.0004M15.2266 8.04918V17.0004M19.7735 8.04918V17.0004M24.3204 8.04918V17.0004M28.8673 8.04918V17.0004M30.6031 5.78822H4.39693L17.5 1.60221L30.6031 5.78822Z" stroke="#3498DB" stroke-width="0.555556" stroke-linecap="round" stroke-linejoin="round"/>
<path d="M30.6031 4.13144V8.04918H4.39695V4.13144M17.5 1.60221V0.284176" stroke="#3498DB" stroke-width="0.555556" stroke-linecap="round" stroke-linejoin="round"/>
</svg>
