<svg width="40" height="35" viewBox="0 0 40 35" fill="none" xmlns="http://www.w3.org/2000/svg">
<g clip-path="url(#clip0_46_291)">
<path d="M9.95801 12.1667H10.458V11.6667C10.458 9.50106 11.4365 7.40876 13.2047 5.8551C14.9749 4.29962 17.3882 3.41669 19.916 3.41669C22.4438 3.41669 24.8572 4.29962 26.6274 5.8551C28.3955 7.40876 29.3741 9.50106 29.3741 11.6667V12.1667H29.8741H31.5337C32.3008 12.1667 33.0256 12.435 33.5508 12.8966C34.074 13.3563 34.3531 13.9648 34.3531 14.5834V29.1667C34.3531 29.7852 34.074 30.3938 33.5508 30.8535C33.0256 31.315 32.3008 31.5834 31.5337 31.5834H8.29834C7.53123 31.5834 6.80649 31.315 6.28125 30.8535C5.75809 30.3938 5.479 29.7852 5.479 29.1667V14.5834C5.479 13.9648 5.75809 13.3563 6.28125 12.8966C6.80649 12.435 7.53123 12.1667 8.29834 12.1667H9.95801ZM26.5547 12.1667H27.0547V11.6667C27.0547 9.96458 26.2847 8.34754 24.9403 7.1663C23.5981 5.98688 21.79 5.33335 19.916 5.33335C18.0421 5.33335 16.234 5.98688 14.8917 7.1663C13.5474 8.34754 12.7774 9.96458 12.7774 11.6667V12.1667H13.2774H26.5547ZM19.916 17H19.916C19.0905 17.0001 18.282 17.2391 17.6159 17.6882C16.9491 18.1378 16.457 18.7772 16.2317 19.5159C16.0059 20.2563 16.0653 21.0419 16.3972 21.746C16.6853 22.3571 17.161 22.8706 17.7564 23.2355V24.7917C17.7564 25.3335 18.0019 25.8377 18.4124 26.1985C18.8209 26.5574 19.3626 26.75 19.916 26.75C20.4694 26.75 21.0111 26.5574 21.4196 26.1985C21.8302 25.8377 22.0757 25.3335 22.0757 24.7917V23.2355C22.5333 22.9551 22.9217 22.586 23.2085 22.1495C23.5514 21.6278 23.7354 21.0299 23.7354 20.4167C23.7354 19.4881 23.315 18.613 22.5932 17.9787C21.8734 17.3463 20.9096 17 19.916 17Z" fill="#4F4F4F" fill-opacity="0.8" stroke="#4F4F4F"/>
</g>
<defs>
<clipPath id="clip0_46_291">
<rect width="39.8321" height="35" fill="white"/>
</clipPath>
</defs>
</svg>
