<svg width="33" height="33" viewBox="0 0 33 33" fill="none" xmlns="http://www.w3.org/2000/svg">
<path d="M22 22C22 20.4806 17.6907 19.25 12.375 19.25M22 22C22 23.5194 17.6907 24.75 12.375 24.75C7.05925 24.75 2.75 23.5194 2.75 22M22 22V28.7884C22 30.3545 17.6907 31.625 12.375 31.625C7.05925 31.625 2.75 30.3559 2.75 28.7884V22M22 22C27.258 22 31.625 20.6429 31.625 19.25V5.5M12.375 19.25C7.05925 19.25 2.75 20.4806 2.75 22M12.375 19.25C6.30025 19.25 1.375 17.8929 1.375 16.5V9.625M12.375 6.875C6.30025 6.875 1.375 8.10562 1.375 9.625M1.375 9.625C1.375 11.1444 6.30025 12.375 12.375 12.375C12.375 13.7679 16.8479 15.125 22.1059 15.125C27.3625 15.125 31.625 13.7679 31.625 12.375M31.625 5.5C31.625 3.98062 27.3625 2.75 22.1059 2.75C16.8479 2.75 12.5867 3.98062 12.5867 5.5M31.625 5.5C31.625 7.01938 27.3625 8.25 22.1059 8.25C16.8492 8.25 12.5867 7.01938 12.5867 5.5M12.5867 5.5V19.4783" stroke="#F4D36C" stroke-width="1.66667"/>
</svg>
