<svg width="20" height="20" viewBox="0 0 20 20" fill="none" xmlns="http://www.w3.org/2000/svg">
<path d="M13.094 2.60594C12.9101 2.53994 12.6931 2.47694 12.4401 2.41394L13.094 2.60594ZM13.094 2.60594C13.295 2.67794 13.554 2.78693 13.874 2.93593L13.094 2.60594ZM12.0603 2.83463L11.9697 2.58361L11.2638 0.626893C11.2638 0.626836 11.2638 0.62678 11.2638 0.626723C11.2638 0.626703 11.2638 0.626682 11.2638 0.626661C11.2373 0.553724 11.1644 0.49999 11.0781 0.49999H8.98415H8.983C8.94265 0.499896 8.90325 0.512261 8.87019 0.535395C8.83728 0.558421 8.81225 0.590999 8.79846 0.628716C8.7984 0.628892 8.79834 0.629067 8.79827 0.629243L8.13884 2.46868L8.05898 2.69143L7.83609 2.7709C7.50066 2.89048 7.2527 2.995 7.07893 3.0874L7.07802 3.08788C6.92263 3.1701 6.74715 3.27421 6.54956 3.40594L6.32773 3.55383L6.08133 3.45204L4.18338 2.66806L4.18314 2.66797C4.14717 2.65309 4.10766 2.64892 4.06938 2.65596C4.03112 2.663 3.99571 2.68094 3.9674 2.70762C3.96738 2.70764 3.96736 2.70766 3.96734 2.70768L2.56362 4.03341L2.5625 4.03447C2.53427 4.06096 2.51517 4.09572 2.50795 4.13376C2.50074 4.17175 2.50574 4.21105 2.52225 4.24601L12.0603 2.83463ZM12.0603 2.83463L12.3192 2.89912C12.5627 2.95973 12.7623 3.01814 12.9252 3.07657L12.9254 3.07664C13.1065 3.14149 13.3502 3.24357 13.663 3.38919L13.8883 3.49409L14.1079 3.37785L15.7519 2.50787L15.7521 2.50776C15.7907 2.48731 15.8349 2.47992 15.878 2.48672C15.921 2.49349 15.9607 2.51398 15.9911 2.54512C15.9912 2.54523 15.9913 2.54534 15.9915 2.54546L17.4361 4.03907C17.4362 4.03913 17.4362 4.03919 17.4363 4.03925C17.4891 4.09409 17.503 4.17116 17.474 4.23978C17.4739 4.23994 17.4739 4.24009 17.4738 4.24025L16.7031 6.04663L16.608 6.26936L16.7239 6.48201C16.848 6.70987 16.9447 6.90073 17.017 7.0564C17.0945 7.22539 17.194 7.4658 17.3158 7.78505L17.3913 7.98296L17.586 8.06639L19.383 8.83637L19.384 8.8368C19.461 8.86962 19.5045 8.94411 19.4999 9.01961C19.4999 9.01964 19.4999 9.01967 19.4999 9.0197L19.368 11.0923C19.368 11.0925 19.368 11.0926 19.368 11.0927C19.3654 11.1297 19.3521 11.1651 19.3297 11.1946C19.3072 11.2243 19.2765 11.2466 19.2413 11.2589L19.2394 11.2596L17.5375 11.8646L17.2728 11.9587L17.2155 12.2336C17.1691 12.456 17.1224 12.6387 17.0754 12.7873C16.9935 13.0339 16.9 13.2764 16.7953 13.5142L16.7054 13.7184L16.7974 13.9217L17.6524 15.8117L17.6527 15.8125C17.6689 15.8481 17.6733 15.8879 17.6652 15.9261C17.6571 15.9643 17.6369 15.999 17.6077 16.0249L17.6069 16.0257L15.9817 17.4769C15.9817 17.477 15.9816 17.4771 15.9815 17.4771C15.9506 17.5045 15.9121 17.5218 15.8711 17.5268C15.8301 17.5317 15.7884 17.524 15.7519 17.5047L14.0761 16.6168L13.8421 16.4928L13.6081 16.6167C13.3644 16.7457 13.113 16.8597 12.8553 16.9579C12.8549 16.958 12.8545 16.9582 12.8541 16.9583L12.1248 17.2313L11.9083 17.3123L11.8298 17.5298L11.1805 19.3279C11.1804 19.3282 11.1803 19.3284 11.1802 19.3286C11.1666 19.3654 11.1422 19.3973 11.1103 19.4202C11.0781 19.4431 11.0397 19.4558 11.0002 19.4566L10.9988 19.4567L9.09883 19.4996L9.09703 19.4997C9.05632 19.5008 9.01628 19.4892 8.98242 19.4666C8.94879 19.4441 8.9229 19.4118 8.90825 19.3741C8.90815 19.3739 8.90805 19.3736 8.90795 19.3734L8.14289 17.3488L8.05966 17.1286L7.83687 17.0525C7.58625 16.9668 7.33808 16.8741 7.09267 16.7745C6.89563 16.6891 6.70154 16.597 6.51075 16.4984L6.30141 16.3902L6.08473 16.4828L4.18506 17.2947C4.18499 17.2947 4.18492 17.2947 4.18484 17.2948C4.14887 17.3101 4.10924 17.3146 4.07075 17.3078C4.03223 17.301 3.99651 17.2832 3.96792 17.2565C3.96789 17.2565 3.96785 17.2564 3.96782 17.2564L2.5624 15.938L2.56161 15.9372C2.53356 15.911 2.51446 15.8767 2.507 15.839C2.49957 15.8015 2.5041 15.7625 2.51995 15.7277C2.51999 15.7276 2.52003 15.7275 2.52008 15.7274L3.33671 13.9482L3.43825 13.727L3.32673 13.5106C3.22442 13.3121 3.12953 13.1099 3.04224 12.9043C2.9385 12.6476 2.84246 12.3878 2.75424 12.1254L2.67222 11.8814L2.42594 11.8064L0.635986 11.2614L0.635013 11.2611C0.59495 11.249 0.560005 11.224 0.535607 11.19C0.511336 11.1562 0.498853 11.1153 0.500069 11.0737C0.500075 11.0735 0.500082 11.0733 0.500089 11.073L0.569959 9.15564C0.569966 9.15545 0.569974 9.15527 0.569982 9.15508C0.571437 9.12103 0.582122 9.08801 0.600898 9.05956C0.619778 9.03095 0.646119 9.00805 0.677074 8.99333L0.678826 8.99249L2.55678 8.09051L2.7626 7.99166L2.82268 7.77137C2.90756 7.46015 2.97857 7.22982 3.03771 7.06942C3.12638 6.84256 3.22477 6.61962 3.33261 6.40121L3.43963 6.18447L3.33623 5.96597L2.5223 4.24613L12.0603 2.83463ZM10.0241 6.51884C8.08658 6.51884 6.50621 8.07214 6.50621 10.0018C6.50621 11.9312 8.08636 13.4857 10.0241 13.4857C11.961 13.4857 13.541 11.931 13.541 10.0018C13.541 8.07236 11.9619 6.51884 10.0241 6.51884Z" fill="#4F4F4F" fill-opacity="0.8" stroke="#4F4F4F"/>
</svg>
