<svg width="20" height="20" viewBox="0 0 20 20" fill="none" xmlns="http://www.w3.org/2000/svg">
<g clip-path="url(#clip0_46_337)">
<path d="M13.0939 2.606C12.9099 2.54 12.6929 2.477 12.4399 2.414L13.0939 2.606ZM13.0939 2.606C13.2949 2.678 13.5539 2.787 13.8739 2.936L13.0939 2.606ZM12.0601 2.8347L11.9695 2.58368L11.2636 0.626908C11.2636 0.626852 11.2636 0.626795 11.2636 0.626739C11.2636 0.626718 11.2636 0.626697 11.2635 0.626676C11.2371 0.553738 11.1642 0.500002 11.0779 0.500002H8.98388H8.98273C8.94238 0.499908 8.90298 0.512273 8.86992 0.535408C8.83701 0.558435 8.81197 0.591014 8.79819 0.628732C8.79813 0.628907 8.79806 0.629083 8.798 0.629258L8.13855 2.46874L8.05869 2.6915L7.83579 2.77097C7.50036 2.89055 7.25239 2.99508 7.07861 3.08748L7.07771 3.08796C6.92231 3.17017 6.74683 3.27429 6.54923 3.40603L6.3274 3.55391L6.08099 3.45213L4.18299 2.66813L4.18276 2.66803C4.14678 2.65315 4.10728 2.64898 4.06899 2.65603C4.03073 2.66307 3.99532 2.681 3.96701 2.70768C3.96699 2.7077 3.96696 2.70772 3.96694 2.70774L2.56319 4.03351L2.56207 4.03457C2.53384 4.06106 2.51474 4.09582 2.50752 4.13386C2.50031 4.17185 2.50532 4.21115 2.52182 4.24612L12.0601 2.8347ZM12.0601 2.8347L12.3191 2.89919C12.5625 2.9598 12.7622 3.01821 12.9251 3.07664L12.9253 3.07671C13.1063 3.14157 13.3501 3.24364 13.6628 3.38927L13.8881 3.49417L14.1077 3.37794L15.7517 2.50794L15.752 2.50783C15.7906 2.48737 15.8348 2.47998 15.8779 2.48678C15.9209 2.49355 15.9606 2.51404 15.991 2.54518C15.9911 2.54529 15.9913 2.54541 15.9914 2.54552L17.4361 4.03917C17.4361 4.03923 17.4362 4.03929 17.4362 4.03935C17.489 4.09419 17.5029 4.17126 17.4739 4.23988C17.4739 4.24004 17.4738 4.2402 17.4737 4.24036L16.703 6.04678L16.608 6.26951L16.7238 6.48217C16.8479 6.71004 16.9446 6.9009 17.0169 7.05657C17.0944 7.22557 17.1939 7.46598 17.3157 7.78524L17.3912 7.98316L17.586 8.06659L19.3829 8.83659L19.3839 8.83701C19.461 8.86984 19.5045 8.94433 19.4999 9.01983C19.4999 9.01986 19.4998 9.01989 19.4998 9.01992L19.368 11.0926C19.368 11.0927 19.368 11.0929 19.368 11.093C19.3654 11.13 19.3521 11.1654 19.3297 11.1949C19.3071 11.2245 19.2764 11.2469 19.2413 11.2592L19.2394 11.2599L17.5374 11.8649L17.2727 11.959L17.2154 12.2339C17.169 12.4563 17.1224 12.639 17.0753 12.7876C16.9934 13.0342 16.8999 13.2768 16.7953 13.5145L16.7054 13.7188L16.7973 13.9221L17.6523 15.8121L17.6527 15.8129C17.6688 15.8484 17.6732 15.8883 17.6651 15.9265C17.657 15.9647 17.6369 15.9994 17.6077 16.0253L17.6068 16.0261L15.9816 17.4774C15.9816 17.4774 15.9815 17.4775 15.9814 17.4776C15.9505 17.5049 15.912 17.5223 15.871 17.5272C15.83 17.5322 15.7883 17.5244 15.7518 17.5051L14.076 16.6172L13.842 16.4932L13.6079 16.6171C13.3642 16.7462 13.1128 16.8601 12.8551 16.9583C12.8547 16.9584 12.8543 16.9586 12.8539 16.9587L12.1246 17.2317L11.9081 17.3128L11.8296 17.5302L11.1802 19.3284C11.1802 19.3286 11.1801 19.3289 11.18 19.3291C11.1664 19.3659 11.142 19.3978 11.11 19.4206C11.0779 19.4436 11.0395 19.4563 11 19.4571L10.9986 19.4571L9.09857 19.5001L9.09676 19.5002C9.05605 19.5012 9.01601 19.4897 8.98215 19.467C8.94852 19.4446 8.92263 19.4123 8.90798 19.3746C8.90788 19.3744 8.90777 19.3741 8.90767 19.3738L8.1426 17.3493L8.05937 17.129L7.83658 17.0529C7.58594 16.9672 7.33777 16.8745 7.09236 16.7749C6.89531 16.6895 6.70122 16.5974 6.51043 16.4988L6.30108 16.3906L6.08439 16.4832L4.18468 17.2951C4.1846 17.2951 4.18453 17.2952 4.18446 17.2952C4.14849 17.3105 4.10885 17.315 4.07036 17.3082C4.03184 17.3015 3.99612 17.2836 3.96753 17.2569C3.96749 17.2569 3.96746 17.2569 3.96743 17.2568L2.56197 15.9383L2.56118 15.9376C2.53313 15.9114 2.51403 15.8771 2.50658 15.8394C2.49914 15.8019 2.50367 15.7629 2.51952 15.7281C2.51956 15.728 2.51961 15.7279 2.51965 15.7278L3.3363 13.9486L3.43785 13.7273L3.32633 13.5109C3.22401 13.3124 3.12911 13.1102 3.04182 12.9046C2.93808 12.6479 2.84204 12.3881 2.75382 12.1257L2.6718 11.8817L2.42551 11.8067L0.635513 11.2617L0.63454 11.2614C0.594476 11.2493 0.55953 11.2243 0.535132 11.1903C0.51086 11.1564 0.498377 11.1156 0.499593 11.074C0.499599 11.0737 0.499606 11.0735 0.499613 11.0733L0.569485 9.15586C0.569492 9.15568 0.5695 9.15549 0.569508 9.1553C0.570963 9.12125 0.581648 9.08823 0.600425 9.05978C0.619305 9.03117 0.645647 9.00827 0.676603 8.99355L0.678354 8.99271L2.55635 8.09071L2.76218 7.99185L2.82226 7.77156C2.90714 7.46033 2.97816 7.23 3.0373 7.06959C3.12597 6.84272 3.22436 6.61978 3.33221 6.40137L3.43923 6.18462L3.33582 5.96612L2.52188 4.24623L12.0601 2.8347ZM10.0239 6.519C8.08629 6.519 6.50588 8.07234 6.50588 10.002C6.50588 11.9314 8.08607 13.486 10.0239 13.486C11.9608 13.486 13.5409 11.9313 13.5409 10.002C13.5409 8.07256 11.9617 6.519 10.0239 6.519Z" fill="#4F4F4F" fill-opacity="0.8" stroke="#4F4F4F"/>
</g>
<defs>
<clipPath id="clip0_46_337">
<rect width="20" height="20" fill="white"/>
</clipPath>
</defs>
</svg>
