<svg width="30" height="24" viewBox="0 0 30 24" fill="none" xmlns="http://www.w3.org/2000/svg">
<path d="M7.26021 0.000189916C6.15036 0.358062 5.28197 0.751025 4.21196 1.53619C4.07323 1.66863 3.93723 1.80391 3.80405 1.94195C3.81926 1.9778 3.84269 2.02207 3.87734 2.08446C3.94169 2.2005 4.0526 2.33928 4.19214 2.47654C3.97828 2.81977 3.77756 3.17102 3.59041 3.52951C3.35833 3.33695 3.15007 3.12267 2.98272 2.88217C2.49745 3.48709 2.06438 4.1321 1.68817 4.81025C1.71319 4.91387 1.7868 5.02687 1.9276 5.17825C2.09583 5.35896 2.35863 5.54562 2.66399 5.70486C2.53579 6.09231 2.42583 6.47787 2.33551 6.86272C1.86426 6.64863 1.43323 6.3707 1.09442 6.01757C0.712448 6.90597 0.427743 7.83309 0.245284 8.78275C0.329844 8.93692 0.48053 9.07811 0.708428 9.22816C1.02969 9.43972 1.49131 9.61302 1.99309 9.71316C1.99024 10.1209 2.00893 10.5253 2.04453 10.9245C1.322 10.8185 0.625389 10.5921 0.0572273 10.2179C0.0540603 10.2157 0.0505132 10.2141 0.0473462 10.2119C-0.0337986 11.1808 -0.0105884 12.1556 0.116577 13.1196C0.262893 13.34 0.507766 13.4969 0.872669 13.6224C1.34177 13.7837 1.97935 13.8342 2.62846 13.7688C2.75514 14.1566 2.89924 14.5371 3.05981 14.909C2.17494 15.0418 1.27127 15.0117 0.488638 14.7427C0.467292 14.7353 0.446516 14.7267 0.425297 14.7189C0.675803 15.6931 1.03363 16.6364 1.4922 17.5316C1.71725 17.7092 2.02109 17.7987 2.42457 17.8265C3.01363 17.8673 3.76383 17.717 4.4792 17.4248C4.71375 17.7569 4.96205 18.0792 5.22344 18.3907C4.30058 18.816 3.30044 19.0669 2.36914 19.0083C2.99959 19.9342 3.74075 20.7797 4.57617 21.526C4.846 21.6176 5.16524 21.6188 5.54996 21.5438C6.15803 21.4251 6.87092 21.0748 7.51541 20.5937C7.51592 20.594 7.51706 20.5934 7.51744 20.5937C7.84306 20.8453 8.1792 21.083 8.52493 21.3063C7.76636 21.934 6.90183 22.4271 6.02109 22.6503C6.76522 23.1538 7.55755 23.5821 8.3864 23.9289C8.69911 23.9557 9.03817 23.8681 9.42163 23.6815C9.90758 23.4449 10.4211 23.0321 10.8804 22.5237C11.9594 22.9533 13.0803 23.2343 14.2097 23.3411L14.3225 22.1613C13.4187 22.0758 12.5119 21.8592 11.6266 21.5319C12.0625 20.8283 12.3619 20.0641 12.4462 19.414C12.5208 18.8367 12.4514 18.3906 12.2066 18.0561C11.6948 17.956 11.2002 17.8065 10.7261 17.6127C10.7152 18.0225 10.618 18.4353 10.4588 18.8221C10.2216 19.3987 9.85577 19.9494 9.41175 20.4512C9.07131 20.2418 8.7404 20.0172 8.42003 19.7782C8.83935 19.3233 9.17524 18.83 9.36418 18.3708C9.60526 17.7852 9.6285 17.3208 9.40377 16.926C8.91301 16.612 8.45348 16.2459 8.02815 15.8353C7.91585 16.1077 7.76294 16.3655 7.58274 16.6013C7.23589 17.0552 6.78643 17.4571 6.28028 17.7988C6.01931 17.4998 5.77026 17.1905 5.53603 16.8684C5.98904 16.5711 6.3782 16.2287 6.64258 15.8827C6.96169 15.4651 7.0999 15.0967 7.05227 14.7367C6.73346 14.3159 6.44758 13.8712 6.19717 13.4065C6.05225 13.577 5.88968 13.7316 5.71218 13.8678C5.28412 14.1956 4.77487 14.4477 4.22964 14.6298C4.06527 14.2694 3.91566 13.9015 3.78626 13.5254C4.25668 13.373 4.68125 13.1654 4.99162 12.9276C5.3524 12.6513 5.54914 12.3864 5.59538 12.0884C5.40117 11.5745 5.2444 11.0472 5.12628 10.5107C5.00796 10.5787 4.88494 10.6383 4.75815 10.6888C4.28626 10.8755 3.76054 10.9697 3.22025 10.9897C3.17747 10.5959 3.15563 10.2001 3.15482 9.80399C3.59547 9.78733 4.00763 9.71297 4.32281 9.58831C4.61417 9.47303 4.80388 9.34762 4.9146 9.19244C4.84853 8.56527 4.83131 7.93391 4.8631 7.30408C4.82193 7.31066 4.78139 7.31548 4.74035 7.31991C4.32078 7.36583 3.88171 7.32941 3.44783 7.23485C3.5346 6.85607 3.64228 6.47413 3.77048 6.09073C4.07895 6.14983 4.37462 6.1682 4.61164 6.14229C4.77721 6.12418 4.8987 6.0944 4.99168 6.05323C5.07869 5.49538 5.20505 4.94438 5.36982 4.40436C5.10493 4.35774 4.84511 4.27185 4.59391 4.15892C4.77742 3.80489 4.97486 3.45825 5.18576 3.11982C5.33866 3.18082 5.48447 3.22528 5.60931 3.2446C5.67943 3.25537 5.73745 3.26139 5.78553 3.26234C5.90879 2.96844 6.04028 2.68151 6.18343 2.40325C6.55701 1.65571 6.9698 0.867254 7.26021 0.000316527V0.000189916ZM22.739 0.000189916C23.0293 0.867064 23.4421 1.65559 23.8158 2.40319C23.9601 2.68421 24.0935 2.97077 24.2154 3.26221C24.2631 3.2612 24.3206 3.25505 24.3896 3.24448C24.515 3.22509 24.6617 3.18114 24.8153 3.1197C25.0262 3.45814 25.2236 3.8048 25.4071 4.15885C25.1553 4.27198 24.8943 4.35774 24.6293 4.40436C24.7916 4.93579 24.919 5.48748 25.0073 6.05311C25.1006 6.09478 25.2229 6.12405 25.3894 6.14229C25.6264 6.16826 25.9221 6.14989 26.2305 6.09079C26.356 6.4674 26.463 6.8499 26.5512 7.23694C26.1182 7.33112 25.6795 7.3659 25.2607 7.3201C25.219 7.31584 25.1775 7.31056 25.1361 7.30427C25.1685 7.93403 25.152 8.56537 25.0866 9.19256C25.1974 9.34775 25.3871 9.47316 25.6785 9.58844C25.9931 9.7129 26.4045 9.78733 26.8443 9.80418C26.8435 10.2003 26.8217 10.5961 26.7791 10.9899C26.2394 10.9696 25.7144 10.8754 25.2431 10.689C25.1163 10.6384 24.9932 10.5788 24.8749 10.5108C24.7566 11.0466 24.5999 11.5732 24.4058 12.0864C24.4511 12.3854 24.6462 12.6509 25.0075 12.9277C25.3181 13.1654 25.7426 13.373 26.2131 13.5254C26.0836 13.9016 25.934 14.2694 25.7697 14.6299C25.2251 14.4478 24.7167 14.1952 24.2891 13.8679C24.1109 13.7318 23.9477 13.5771 23.8021 13.4066C23.5481 13.8767 23.2625 14.3215 22.947 14.7367C22.8989 15.0966 23.0376 15.4653 23.3569 15.8829C23.6209 16.2285 24.0101 16.5714 24.4632 16.8686C24.2291 17.1907 23.9799 17.4999 23.719 17.7989C23.2129 17.4571 22.7634 17.0553 22.4166 16.6014C22.2368 16.3661 22.0851 16.1087 21.9732 15.8373C21.5482 16.2476 21.0879 16.6123 20.5974 16.926C20.3728 17.3208 20.396 17.7852 20.6371 18.3709C20.8262 18.8301 21.1621 19.3233 21.5814 19.7783C21.2603 20.0173 20.9288 20.2418 20.5877 20.4512C20.1441 19.9494 19.7798 19.3987 19.5426 18.8221C19.3834 18.4354 19.2862 18.0226 19.2753 17.6128C18.7967 17.8085 18.3002 17.957 17.7928 18.0562C17.5475 18.3906 17.4786 18.8368 17.5534 19.414C17.6374 20.0642 17.9385 20.8284 18.3747 21.532C17.4896 21.8593 16.5826 22.0759 15.6788 22.1614L15.7897 23.3411C16.9197 23.2343 18.0412 22.9537 19.121 22.5237C19.5802 23.0321 20.0938 23.4449 20.5797 23.6815C20.9633 23.8682 21.3023 23.9558 21.615 23.9289C22.4439 23.5822 23.2362 23.1539 23.9803 22.6503C23.1001 22.4273 22.2345 21.935 21.4764 21.3081C21.8211 21.0861 22.1567 20.8461 22.4839 20.5936C23.1287 21.0752 23.8429 21.425 24.4514 21.5437C24.835 21.6186 25.1538 21.6188 25.4233 21.5279C26.2594 20.7811 27.0013 19.9349 27.6323 19.0082C26.7008 19.0668 25.6987 18.816 24.7759 18.3906C25.0369 18.0794 25.2868 17.7579 25.5221 17.4247C26.2375 17.7167 26.9876 17.8672 27.5768 17.8264C27.9802 17.7985 28.2841 17.7091 28.509 17.5315C28.9676 16.6363 29.3254 15.6929 29.5759 14.7188C29.5547 14.7266 29.5339 14.7353 29.5126 14.7426C28.73 15.0116 27.8263 15.0417 26.9413 14.9088C27.1026 14.5356 27.2466 14.1552 27.3729 13.7687C28.0212 13.8338 28.6581 13.7833 29.1266 13.6222C29.4918 13.4968 29.7379 13.34 29.8847 13.1195C30.0112 12.1554 30.0338 11.1806 29.9521 10.2118C29.9494 10.2135 29.9469 10.2159 29.9442 10.2177C29.376 10.5919 28.6793 10.8184 27.9568 10.9243C27.9925 10.5252 28.011 10.1208 28.0082 9.71297C28.5099 9.61276 28.9717 9.43953 29.2928 9.22797C29.5204 9.07811 29.6694 8.93635 29.7541 8.78256C29.5715 7.83294 29.2868 6.90585 28.9048 6.01745C28.5661 6.37025 28.1363 6.64832 27.6658 6.86266C27.5735 6.47197 27.4639 6.08559 27.3372 5.70467C27.6415 5.5455 27.9035 5.35858 28.0715 5.17813C28.2116 5.02763 28.287 4.91526 28.313 4.81202C27.9369 4.13321 27.5038 3.48757 27.0184 2.88204C26.851 3.12248 26.6428 3.33683 26.4108 3.52938C26.2236 3.17087 26.0229 2.81958 25.8091 2.47629C25.9489 2.33909 26.0595 2.20012 26.1238 2.08421C26.1578 2.02277 26.182 1.97932 26.197 1.94372C26.0632 1.80502 25.9266 1.66908 25.7873 1.536C24.7173 0.750835 23.8489 0.357872 22.739 0L22.739 0.000189916ZM8.41402 3.86002L9.94014 12.0764H20.334L21.7849 4.19052L18.1151 8.21263L15.2668 3.95705L12.4165 8.21269L8.41414 3.86008L8.41402 3.86002ZM10.1599 13.2601L10.3855 14.4773H19.8925L20.1163 13.26H10.16L10.1599 13.2601Z" fill="#4F4F4F"/>
</svg>
