<svg width="27" height="27" viewBox="0 0 27 27" fill="none" xmlns="http://www.w3.org/2000/svg">
<path d="M18 23.625C21.9679 21.8846 24.7489 18.1024 24.7489 13.5C24.7489 8.89762 21.9679 5.11538 18 3.375V5.625C20.6854 7.18425 22.4989 10.1779 22.4989 13.5C22.4989 16.8221 20.6854 19.8158 18 21.375V23.625Z" fill="#3498DB"/>
<path d="M18 7.875V19.125C19.3781 17.8875 20.25 15.4924 20.25 13.5C20.25 11.5076 19.3781 9.1125 18 7.875ZM4.5 19.125H7.53412L15.75 24.6015V2.3985L7.53412 7.875H4.5C3.25912 7.875 2.25 8.88412 2.25 10.125V16.875C2.25 18.1159 3.25912 19.125 4.5 19.125Z" fill="#3498DB"/>
</svg>
